<svg xmlns="http://www.w3.org/2000/svg" viewBox="0 0 300 120" width="300" height="120">
  <rect width="100%" height="100%" fill="transparent"/>
  <g transform="translate(20, 20)">
    <!-- Stallion head / shield -->
    <path d="M25 8 C38 8 50 16 48 32 C46 44 32 54 25 64 C18 54 4 44 2 32 C0 16 12 8 25 8 Z" fill="#475569"/>
    <path d="M25 14 C34 14 42 20 40 32 C38 41 28 50 25 56 C22 50 12 41 10 32 C8 20 16 14 25 14 Z" fill="#94a3b8"/>
    <text x="58" y="38" font-family="Arial Black, sans-serif" font-size="20" font-weight="900" fill="#0f172a" letter-spacing="1">SILVER STALLION</text>
    <text x="60" y="56" font-family="sans-serif" font-size="9" font-weight="800" fill="#475569" letter-spacing="4">CUSTOM EXHAUSTS</text>
  </g>
</svg>